# xmcd CD database file
#
# Track frame offsets:
#	187
#	20007
#	39107
#	61067
#	84307
#	104467
#	122310
#	143700
#	162000
#	178255
#	198007
#
# Disc length: 2748 seconds
#
# Revision: 0
# Processed by: cddbd v1.5.1PL0 Copyright (c) Steve Scherf et al.
# Submitted via: CDex 1.51
#
DISCID=7e0aba0b
DTITLE=EPO - PUMP!PUMP!
DYEAR=1986
DGENRE=JPop
TTITLE0=太陽にＰＵＭＰ！ＰＵＭＰ！
TTITLE1=音楽のような風
TTITLE2=ナーヴァス
TTITLE3=スウィート・エモーション
TTITLE4=イッツ・ア・シェイム
TTITLE5=アレイ・キャッツ
TTITLE6=渚のモニュメント
TTITLE7=理想のスタイル、悲しき個性
TTITLE8=切りすぎた前髪
TTITLE9=12月のエイプリル・フール
TTITLE10=すてきなジェニー
EXTD=YEAR: 1986
EXTT0=
EXTT1=
EXTT2=
EXTT3=
EXTT4=
EXTT5=
EXTT6=
EXTT7=
EXTT8=
EXTT9=
EXTT10=
PLAYORDER=
